<svg width="1484" height="1484" xmlns="http://www.w3.org/2000/svg" xmlns:xlink="http://www.w3.org/1999/xlink" overflow="hidden"><defs><clipPath id="clip0"><rect x="1289" y="337" width="1484" height="1484"/></clipPath><clipPath id="clip1"><path d="M1994.66 1146.33 2167.83 1286.07 2028.09 1459.24 1854.92 1319.5Z" fill-rule="evenodd" clip-rule="evenodd"/></clipPath><clipPath id="clip2"><path d="M1994.66 1146.33 2167.83 1286.07 2028.09 1459.24 1854.92 1319.5Z" fill-rule="evenodd" clip-rule="evenodd"/></clipPath><clipPath id="clip3"><path d="M1994.66 1146.33 2167.83 1286.07 2028.09 1459.24 1854.92 1319.5Z" fill-rule="evenodd" clip-rule="evenodd"/></clipPath></defs><g clip-path="url(#clip0)" transform="translate(-1289 -337)"><path d="M1557 1416 2031 1267 2505 1416 2031 1565Z" fill="#C5E0B4" fill-rule="evenodd"/><rect x="1557" y="852" width="948" height="564" fill="#C5E0B4"/><path d="M1557 852.5 2031 704 2505 852.5 2031 1001Z" fill="#E2F0D9" fill-rule="evenodd"/><path d="M1843 1267C1843 1215.09 1885.09 1173 1937 1173 1988.91 1173 2031 1215.09 2031 1267 2031 1318.91 1988.91 1361 1937 1361 1885.09 1361 1843 1318.91 1843 1267Z" fill="#FFFFFF" fill-rule="evenodd"/><path d="M1937 1173.5C1937 1121.31 1979.09 1079 2031 1079 2082.91 1079 2125 1121.31 2125 1173.5 2125 1225.69 2082.91 1268 2031 1268 1979.09 1268 1937 1225.69 1937 1173.5Z" fill="#FFFFFF" fill-rule="evenodd"/><path d="M2031 1267C2031 1215.09 2073.09 1173 2125 1173 2176.91 1173 2219 1215.09 2219 1267 2219 1318.91 2176.91 1361 2125 1361 2073.09 1361 2031 1318.91 2031 1267Z" fill="#FFFFFF" fill-rule="evenodd"/><g clip-path="url(#clip1)"><g clip-path="url(#clip2)"><g clip-path="url(#clip3)"><path d="M1972.62 1385.88C1972.62 1385.88 2026 1362.54 2015.37 1264.61L1982.92 1267.91 2032.42 1206.58 2093.75 1256.07 2063.76 1259.28C2063.79 1259.6 2065.28 1353.73 1972.62 1385.88Z" stroke="#C5E0B4" stroke-width="2.3179" fill="#C5E0B4"/></g></g></g></g></svg>